<?xml version="1.0" encoding="utf-8"?>
<!-- Generator: Adobe Illustrator 20.0.0, SVG Export Plug-In . SVG Version: 6.00 Build 0)  -->
<svg version="1.1" id="Warstwa_1" xmlns="http://www.w3.org/2000/svg" xmlns:xlink="http://www.w3.org/1999/xlink" x="0px" y="0px"
	 width="24px" height="24px" viewBox="0 0 23 23" style="enable-background:new 0 0 23 23;" xml:space="preserve">
<style type="text/css">
	.st0{fill:#FFFFFF;}
	.st1{fill:#FEC906;}
	.st2{fill:#9A7A14;}
	.st3{opacity:0.2;fill:#9A7A14;enable-background:new    ;}
	.st4{opacity:0.5;fill:#9A7A14;enable-background:new    ;}
	.st5{fill:#E30613;}
	.st6{fill:#008D36;}
	.st7{opacity:0.4;fill:#9A7A14;enable-background:new    ;}
	.st8{opacity:0.5;fill:#FEC906;enable-background:new    ;}
</style>
<rect class="st0" width="23" height="23"/>
<path class="st7" d="M16,14.3c0-2,0-1.8,0-3.7h-1.5c0-1.3,0.1-2.5-0.3-3.4c-0.4-0.7-1.1-1.4-1.9-1.6c-1.6-0.4-3,0.6-3.6,1.6
	c-0.5,0.9-0.3,2.1-0.3,3.3c-0.5,0-0.9,0-1.5,0c0,0.8,0,1.4,0,2.9c0,2-0.3,3.1,1.1,3.6c0.9,0.3,2.6,0.1,3.6,0.1
	c1.1,0,2.7,0.2,3.6-0.1C16.1,16.7,16,15.5,16,14.3z M13.2,10.5c-0.6,0-1.3,0-1.9,0c-0.5,0-1,0-1.6,0C9.6,8.7,9.6,7.2,11,6.8
	c0.9-0.2,1.7,0.3,2,1.1C13.3,8.6,13.1,9.5,13.2,10.5z"/>
<path class="st8" d="M0,0v23h23V0H0z M20,20H3V3h17V20z"/>
</svg>
