<?xml version="1.0" encoding="utf-8"?>
<!-- Generator: Adobe Illustrator 19.2.1, SVG Export Plug-In . SVG Version: 6.00 Build 0)  -->
<svg version="1.1" id="Warstwa_1" xmlns="http://www.w3.org/2000/svg" xmlns:xlink="http://www.w3.org/1999/xlink" x="0px" y="0px"
	 width="30px" height="1400px" viewBox="0 0 30 1400" style="enable-background:new 0 0 30 1400;" xml:space="preserve">
<style type="text/css">
	.st0{fill:#FFFFFF;}
	.st1{fill:#7B6A5C;}
	.st2{fill:#18126C;enable-background:new    ;}
	.st3{opacity:0.2;fill:#18126C;enable-background:new    ;}
	.st4{opacity:0.5;fill:#18126C;enable-background:new    ;}
	.st5{fill:#E50019;}
	.st6{fill:#00973D;}
	.st7{opacity:0.4;fill:#18126C;enable-background:new    ;}
	.st8{opacity:0.5;fill:#7B6A5C;enable-background:new    ;}
</style>
<rect y="7" class="st0" width="23" height="23"/>
<path class="st1" d="M0,7v23h23V7H0z M20,27H3V10h17V27z"/>
<rect y="407" class="st0" width="23" height="23"/>
<polygon class="st2" points="10,423.8 10.1,423.9 19,415 16.7,412.6 10,419.2 7,416.2 4.6,418.5 10,423.9 "/>
<path class="st1" d="M0,407v23h23v-23H0z M20,427H3v-17h17V427z"/>
<rect y="207" class="st0" width="23" height="23"/>
<polygon class="st3" points="16.7,212.6 10,219.2 7,216.2 4.6,218.5 10,223.9 10,223.8 10.1,223.9 19,215 "/>
<path class="st1" d="M0,207v23h23v-23H0z M20,227H3v-17h17V227z"/>
<rect y="607" class="st0" width="23" height="23"/>
<polygon class="st4" points="16.7,612.6 10,619.2 7,616.2 4.6,618.5 10,623.9 10,623.8 10.1,623.9 19,615 "/>
<path class="st1" d="M0,607v23h23v-23H0z M20,627H3v-17h17V627z"/>
<rect y="807" class="st0" width="23" height="23"/>
<polygon class="st5" points="10,823.8 10.1,823.9 19,815 16.7,812.6 10,819.2 7,816.2 4.6,818.5 10,823.9 "/>
<path class="st1" d="M0,807v23h23v-23H0z M20,827H3v-17h17V827z"/>
<rect y="1007" class="st0" width="23" height="23"/>
<polygon class="st6" points="10,1023.8 10.1,1023.9 19,1015 16.7,1012.6 10,1019.2 7,1016.2 4.6,1018.5 10,1023.9 "/>
<path class="st1" d="M0,1007v23h23v-23H0z M20,1027H3v-17h17V1027z"/>
<rect y="1207" class="st0" width="23" height="23"/>
<path class="st7" d="M16,1221.3c0-2,0-1.8,0-3.7h-1.5c0-1.3,0.1-2.5-0.3-3.4c-0.4-0.7-1.1-1.4-1.9-1.6c-1.6-0.4-3,0.6-3.6,1.6
	c-0.5,0.9-0.3,2.1-0.3,3.3c-0.5,0-0.9,0-1.5,0c0,0.8,0,1.4,0,2.9c0,2-0.3,3.1,1.1,3.6c0.9,0.3,2.6,0.1,3.6,0.1
	c1.1,0,2.7,0.2,3.6-0.1C16.1,1223.7,16,1222.5,16,1221.3z M13.2,1217.5c-0.6,0-1.3,0-1.9,0c-0.5,0-1,0-1.6,0
	c-0.1-1.8-0.1-3.3,1.3-3.7c0.9-0.2,1.7,0.3,2,1.1C13.3,1215.6,13.1,1216.5,13.2,1217.5z"/>
<path class="st8" d="M0,1207v23h23v-23H0z M20,1227H3v-17h17V1227z"/>
</svg>
