<?xml version="1.0" encoding="utf-8"?>
<!-- Generator: Adobe Illustrator 19.2.1, SVG Export Plug-In . SVG Version: 6.00 Build 0)  -->
<svg version="1.1" id="Warstwa_1" xmlns="http://www.w3.org/2000/svg" xmlns:xlink="http://www.w3.org/1999/xlink" x="0px" y="0px"
	 width="30px" height="1400px" viewBox="0 0 30 1400" style="enable-background:new 0 0 30 1400;" xml:space="preserve">
<style type="text/css">
	.st0{fill:#FFFFFF;}
	.st1{opacity:0.4;fill:#18126C;enable-background:new    ;}
	.st2{fill:#D4301E;}
	.st3{opacity:0.5;fill:#D4301E;enable-background:new    ;}
	.st4{opacity:0.2;fill:#18126C;enable-background:new    ;}
	.st5{fill:#18126C;enable-background:new    ;}
	.st6{opacity:0.5;fill:#18126C;enable-background:new    ;}
	.st7{fill:#E50019;}
	.st8{fill:#00973D;}
</style>
<circle class="st0" cx="11.6" cy="1218.6" r="11.6"/>
<circle class="st0" cx="11.6" cy="1018.6" r="11.6"/>
<circle class="st0" cx="11.6" cy="818.6" r="11.6"/>
<circle class="st0" cx="11.6" cy="618.6" r="11.6"/>
<circle class="st0" cx="11.6" cy="418.6" r="11.6"/>
<circle class="st0" cx="11.6" cy="218.6" r="11.6"/>
<circle class="st0" cx="11.6" cy="18.6" r="11.6"/>
<path class="st1" d="M16.2,1221.3c0-2,0-1.8,0-3.7h-1.5c0-1.3,0.1-2.5-0.3-3.4c-0.4-0.7-1.1-1.4-1.9-1.6c-1.6-0.4-3,0.6-3.6,1.6
	c-0.5,0.9-0.3,2.1-0.3,3.3c-0.5,0-0.9,0-1.5,0c0,0.8,0,1.4,0,2.9c0,2-0.3,3.1,1.1,3.6c0.9,0.3,2.6,0.1,3.6,0.1
	c1.1,0,2.7,0.2,3.6-0.1C16.2,1223.7,16.2,1222.5,16.2,1221.3z M13.3,1217.5c-0.6,0-1.3,0-1.9,0c-0.5,0-1,0-1.6,0
	c-0.1-1.8-0.1-3.3,1.3-3.7c0.9-0.2,1.7,0.3,2,1.1C13.4,1215.6,13.2,1216.5,13.3,1217.5z"/>
<path class="st2" d="M11.6,7C5.2,7,0,12.2,0,18.6s5.2,11.6,11.6,11.6c6.4,0,11.6-5.2,11.6-11.6S18,7,11.6,7z M11.6,26.6
	c-4.4,0-8-3.6-8-8c0-4.4,3.6-8,8-8s8,3.6,8,8C19.6,23,16,26.6,11.6,26.6z"/>
<path class="st2" d="M11.6,407C5.2,407,0,412.2,0,418.6c0,6.4,5.2,11.6,11.6,11.6c6.4,0,11.6-5.2,11.6-11.6
	C23.2,412.2,18,407,11.6,407z M11.6,426.6c-4.4,0-8-3.6-8-8c0-4.4,3.6-8,8-8s8,3.6,8,8C19.6,423,16,426.6,11.6,426.6z"/>
<path class="st2" d="M11.6,607C5.2,607,0,612.2,0,618.6c0,6.4,5.2,11.6,11.6,11.6c6.4,0,11.6-5.2,11.6-11.6
	C23.2,612.2,18,607,11.6,607z M11.6,626.6c-4.4,0-8-3.6-8-8c0-4.4,3.6-8,8-8s8,3.6,8,8C19.6,623,16,626.6,11.6,626.6z"/>
<path class="st2" d="M11.6,807C5.2,807,0,812.2,0,818.6c0,6.4,5.2,11.6,11.6,11.6c6.4,0,11.6-5.2,11.6-11.6
	C23.2,812.2,18,807,11.6,807z M11.6,826.6c-4.4,0-8-3.6-8-8c0-4.4,3.6-8,8-8s8,3.6,8,8C19.6,823,16,826.6,11.6,826.6z"/>
<path class="st2" d="M11.6,1007c-6.4,0-11.6,5.2-11.6,11.6c0,6.4,5.2,11.6,11.6,11.6c6.4,0,11.6-5.2,11.6-11.6
	C23.2,1012.2,18,1007,11.6,1007z M11.6,1026.6c-4.4,0-8-3.6-8-8c0-4.4,3.6-8,8-8s8,3.6,8,8C19.6,1023,16,1026.6,11.6,1026.6z"/>
<path class="st3" d="M11.6,1207c-6.4,0-11.6,5.2-11.6,11.6c0,6.4,5.2,11.6,11.6,11.6c6.4,0,11.6-5.2,11.6-11.6
	C23.2,1212.2,18,1207,11.6,1207z M11.6,1226.6c-4.4,0-8-3.6-8-8c0-4.4,3.6-8,8-8s8,3.6,8,8C19.6,1223,16,1226.6,11.6,1226.6z"/>
<path class="st2" d="M11.6,207C5.2,207,0,212.2,0,218.6c0,6.4,5.2,11.6,11.6,11.6c6.4,0,11.6-5.2,11.6-11.6
	C23.2,212.2,18,207,11.6,207z M11.6,226.6c-4.4,0-8-3.6-8-8c0-4.4,3.6-8,8-8s8,3.6,8,8C19.6,223,16,226.6,11.6,226.6z"/>
<circle class="st4" cx="11.6" cy="218.6" r="5.3"/>
<circle class="st5" cx="11.6" cy="418.6" r="5.3"/>
<circle class="st6" cx="11.6" cy="618.6" r="5.3"/>
<circle class="st7" cx="11.6" cy="818.6" r="5.3"/>
<circle class="st8" cx="11.6" cy="1018.6" r="5.3"/>
</svg>
