<?xml version="1.0" encoding="utf-8"?>
<!-- Generator: Adobe Illustrator 19.0.0, SVG Export Plug-In . SVG Version: 6.00 Build 0)  -->
<svg version="1.1" id="Warstwa_1" xmlns="http://www.w3.org/2000/svg" xmlns:xlink="http://www.w3.org/1999/xlink" x="0px" y="0px"
	 width="60" height="60px" viewBox="5 -5 60 60" style="enable-background:new 5 -5 60 60;" xml:space="preserve">
<style type="text/css">
	.st0{fill:none;stroke:#FFFFFF;stroke-width:2;stroke-miterlimit:10;}
	.st1{fill:#FFFFFF;}
</style>
<g id="Warstwa_1_1_">
</g>
<g>
	<path class="st0" d="M38.8,21.1c-0.2-0.8-0.5-1.6-0.7-2.5c-1-4.2-0.7-7.8,0-8c0.7-0.2,2.5,3,3.6,7.3c0.6,2.5,1.1,5.3,1.4,6.8"/>
	<g id="Warstwa_3">
		<path class="st1" d="M46.8,35.9c-1.4,0-2.6-1.2-2.6-2.6s2.6-5.1,2.6-5.1s2.6,3.7,2.6,5.1S48.3,35.9,46.8,35.9z"/>
	</g>
	<path class="st1" d="M36.1,16.3l-1.2,1.2l0.7,0.7l-9.7,11.5l7.5,7.5l11.5-9.7l0.7,0.7l1.2-1.2L36.1,16.3z M40.7,24.3
		c-0.5,0.5-1.4,0.5-1.9,0c-0.5-0.5-0.5-1.4,0-1.9c0.5-0.5,1.4-0.5,1.9,0C41.3,22.9,41.3,23.7,40.7,24.3z"/>
</g>
</svg>
