<?xml version="1.0" encoding="utf-8"?>
<!-- Generator: Adobe Illustrator 27.0.0, SVG Export Plug-In . SVG Version: 6.00 Build 0)  -->
<svg version="1.1" id="iconos" xmlns="http://www.w3.org/2000/svg" xmlns:xlink="http://www.w3.org/1999/xlink" x="0px" y="0px"
	 viewBox="0 0 22 14" style="enable-background:new 0 0 22 14;" xml:space="preserve">
<style type="text/css">
	.st0{fill:#00973D;}
</style>
<path class="st0" d="M15.6,1.2C15.6,1.2,15.6,1.2,15.6,1.2c0.1-0.1,0.1-0.1,0.1-0.1c0.2-0.2,0.4-0.3,0.7-0.2s0.5,0.1,0.7,0.3
	c0.2,0.2,0.3,0.4,0.2,0.7c0,0.3-0.1,0.5-0.3,0.7L6.7,12.8h0C6.5,13,6.3,13.1,6,13.1S5.5,13,5.3,12.8L1.2,8.8C1.1,8.6,1,8.4,1,8.1
	c0-0.2,0.1-0.4,0.2-0.6c0.2-0.2,0.4-0.3,0.7-0.3c0.3,0,0.5,0.1,0.7,0.2L6,10.8L15.6,1.2z"/>
</svg>
