<?xml version="1.0" encoding="UTF-8" standalone="no"?>
<svg
   xmlns:dc="http://purl.org/dc/elements/1.1/"
   xmlns:cc="http://creativecommons.org/ns#"
   xmlns:rdf="http://www.w3.org/1999/02/22-rdf-syntax-ns#"
   xmlns:svg="http://www.w3.org/2000/svg"
   xmlns="http://www.w3.org/2000/svg"
   xmlns:sodipodi="http://sodipodi.sourceforge.net/DTD/sodipodi-0.dtd"
   xmlns:inkscape="http://www.inkscape.org/namespaces/inkscape"
   height="20"
   version="1.1"
   viewBox="0 0 20 20"
   width="20"
   id="svg2"
   inkscape:version="0.48.4 r9939"
   sodipodi:docname="1430216806_519953-014_ZoomIn.svg">
  <metadata
     id="metadata13">
    <rdf:RDF>
      <cc:Work
         rdf:about="">
        <dc:format>image/svg+xml</dc:format>
        <dc:type
           rdf:resource="http://purl.org/dc/dcmitype/StillImage" />
      </cc:Work>
    </rdf:RDF>
  </metadata>
  <sodipodi:namedview
     pagecolor="#ffffff"
     bordercolor="#666666"
     borderopacity="1"
     objecttolerance="10"
     gridtolerance="10"
     guidetolerance="10"
     inkscape:pageopacity="0"
     inkscape:pageshadow="2"
     inkscape:window-width="640"
     inkscape:window-height="480"
     id="namedview11"
     showgrid="false"
     fit-margin-top="0"
     fit-margin-left="0"
     fit-margin-right="0"
     fit-margin-bottom="0"
     inkscape:zoom="11.313709"
     inkscape:cx="22.93138"
     inkscape:cy="4.1522603"
     inkscape:current-layer="Group" />
  <title
     id="title4" />
  <defs
     id="defs6" />
  <g
     id="Icons with numbers"
     style="fill:none;stroke:none"
     transform="translate(1.59375,6.65625)">
    <g
       id="Group"
       transform="translate(-624,0)"
       style="fill:#000000">
      <path
         d="m 632.40625,11.525568 c 4.51869,0 8.18182,-3.6631244 8.18182,-8.181818 0,-4.5186936 -3.66313,-8.1818182 -8.18182,-8.1818182 -4.51869,0 -8.18182,3.6631246 -8.18182,8.1818182 0,4.5186936 3.66313,8.181818 8.18182,8.181818 z m -0.90909,-12.7272725 1.81818,0 0,3.6363636 3.63636,0 0,1.8181818 -3.63636,0 0,3.6363636 -1.81818,0 0,-3.6363636 -3.63636,0 0,-1.8181818 3.63636,0 z m 0.90909,14.5454545 c -5.52285,0 -10,-4.4771522 -10,-10 0,-5.5228478 4.47715,-10 10,-10 5.52285,0 10,4.4771522 10,10 0,2.2169216 -0.7214,4.2653511 -1.94227,5.9233589 -0.16928,0.2590131 -1.79704,1.9113081 -1.98017,2.0185291 -1.68443,1.290952 -3.79141,2.058112 -6.07756,2.058112 z"
         id="Oval 283 copy"
         inkscape:connector-curvature="0"
         sodipodi:nodetypes="ssssscccccccccccccssssccs"
         style="fill:#ffffff;fill-opacity:1" />
    </g>
  </g>
</svg>
