<svg version="1.1" id="Warstwa_1" xmlns="http://www.w3.org/2000/svg" xmlns:xlink="http://www.w3.org/1999/xlink" x="0px" y="0px"
	 width="24px" height="24px" viewBox="0 0 23.2 23.2" style="enable-background:new 0 0 23.2 23.2;" xml:space="preserve">
<style type="text/css">
	.st0{fill:#FFFFFF;}
	.st1{opacity:0.4;fill:#18126C;enable-background:new    ;}
	.st2{fill:#51A632;}
	.st3{opacity:0.5;fill:#51A632;enable-background:new    ;}
	.st4{opacity:0.2;fill:#18126C;enable-background:new    ;}
	.st5{fill:#18126C;}
	.st6{opacity:0.5;fill:#18126C;enable-background:new    ;}
	.st7{fill:#E50019;}
	.st8{fill:#00973D;}
</style>
<circle class="st0" cx="11.6" cy="11.6" r="11.6"/>
<path class="st1" d="M16.2,14.3c0-2,0-1.8,0-3.7h-1.5c0-1.3,0.1-2.5-0.3-3.4c-0.4-0.7-1.1-1.4-1.9-1.6c-1.6-0.4-3,0.6-3.6,1.6
	c-0.5,0.9-0.3,2.1-0.3,3.3c-0.5,0-0.9,0-1.5,0c0,0.8,0,1.4,0,2.9c0,2-0.3,3.1,1.1,3.6c0.9,0.3,2.6,0.1,3.6,0.1
	c1.1,0,2.7,0.2,3.6-0.1C16.2,16.7,16.2,15.5,16.2,14.3z M13.3,10.5c-0.6,0-1.3,0-1.9,0c-0.5,0-1,0-1.6,0c-0.1-1.8-0.1-3.3,1.3-3.7
	c0.9-0.2,1.7,0.3,2,1.1C13.4,8.6,13.2,9.5,13.3,10.5z"/>
<path class="st3" d="M11.6,0C5.2,0,0,5.2,0,11.6s5.2,11.6,11.6,11.6S23.2,18,23.2,11.6S18,0,11.6,0z M11.6,19.6c-4.4,0-8-3.6-8-8
	s3.6-8,8-8s8,3.6,8,8S16,19.6,11.6,19.6z"/>
</svg>
