<?xml version="1.0" encoding="UTF-8"?>
<svg width="57.755mm" height="9.8743mm" version="1.1" viewBox="0 0 57.755 9.8743" xmlns="http://www.w3.org/2000/svg">
 <g transform="translate(4.3479e-6 -287.13)">
  <g transform="translate(-163.13 326.93)">
   <g transform="matrix(.35278 0 0 -.35278 219.86 -39.722)">
    <path d="m0 0c1.618 0 2.929-1.312 2.929-2.929 0-1.618-1.311-2.929-2.929-2.929s-2.929 1.311-2.929 2.929c0 1.617 1.311 2.929 2.929 2.929" fill="#fff"/>
   </g>
   <g transform="matrix(.35278 0 0 -.35278 217.17 -34.857)">
    <path d="m0 0c0 3.385-2.157 5.35-4.771 5.35-2.719 0-4.736-2.228-4.736-5.35 0-3.209 2.105-5.314 4.771-5.314 2.896-2e-3 4.736 2.419 4.736 5.313zm-12.418 0.035c0 4.6 2.946 8.016 7.156 8.016 1.982 0.045 3.849-0.928 4.947-2.578h0.228v2.192h2.894v-11.93c-0.025-0.365 0.251-0.681 0.616-0.705 0.046-4e-3 0.093-2e-3 0.139 5e-3h0.7v-2.631h-2.07c-1.133-0.094-2.128 0.749-2.222 1.882-6e-3 0.073-8e-3 0.145-6e-3 0.218h-0.21c-1.065-1.632-2.913-2.579-4.859-2.49-4.226 4e-3 -7.313 3.372-7.313 8.021" fill="#fff"/>
   </g>
   <g transform="matrix(.35278 0 0 -.35278 209.92 -33.645)">
    <path d="m0 0v8.279h-2.772v2.508h2.947v4.35h2.719v-4.35h4.508v-2.508h-4.508v-8.244c0-1.368 0.561-1.964 1.894-1.964h2.42v-2.547h-2.455c-2.843 0-4.753 1.32-4.753 4.476" fill="#fff"/>
   </g>
   <g transform="matrix(.35278 0 0 -.35278 208.06 -35.377)">
    <path d="m0 0c-0.066 2.298-1.982 4.107-4.28 4.041-0.047-2e-3 -0.093-4e-3 -0.14-7e-3 -2.324 0.036-4.286-1.72-4.508-4.034zm-11.928-1.474c0 4.824 3.421 8.034 7.507 8.034 4.648 0 7.367-3.3 7.367-7.858v-0.912h-11.892c0.035-2.982 1.842-4.736 4.683-4.736 1.91-0.089 3.64 1.122 4.21 2.947l2.719-0.666c-0.944-2.992-3.796-4.963-6.929-4.788-4.648-1e-3 -7.665 3.314-7.665 7.979" fill="#fff"/>
   </g>
   <g transform="matrix(.35278 0 0 -.35278 198.88 -37.557)">
    <path d="m0 0h2.894v-1.982h0.228c0.891 1.561 2.591 2.48 4.385 2.368 3.455 0 5.578-2.578 5.578-5.841v-9.805h-2.894v9.3c0.082 1.922-1.41 3.546-3.332 3.628-0.058 2e-3 -0.117 3e-3 -0.176 3e-3 -2.087 0.016-3.792-1.665-3.808-3.752 0-0.047 0-0.095 2e-3 -0.142v-9.033h-2.894z" fill="#fff"/>
   </g>
   <g transform="matrix(.35278 0 0 -.35278 196.88 -34.857)">
    <path d="m0 0c0 3.385-2.158 5.35-4.771 5.35-2.719 0-4.736-2.228-4.736-5.35 0-3.209 2.1-5.314 4.771-5.314 2.894-2e-3 4.736 2.419 4.736 5.313zm-12.436 0.035c0 4.6 2.947 8.016 7.156 8.016 1.981 0.045 3.848-0.928 4.946-2.578h0.228v2.192h2.894v-11.93c-0.025-0.365 0.251-0.681 0.616-0.705 0.046-3e-3 0.092-2e-3 0.138 5e-3h0.7v-2.631h-2.07c-1.133-0.094-2.128 0.749-2.222 1.882-6e-3 0.073-8e-3 0.145-6e-3 0.218h-0.21c-1.065-1.632-2.913-2.579-4.859-2.49-4.206 4e-3 -7.311 3.372-7.311 8.021" fill="#fff"/>
   </g>
   <g transform="matrix(.35278 0 0 -.35278 189.56 -32.952)">
    <path d="m0 0h2.982v16.869h-2.982v2.543h5.876v-19.417h2.947v-2.508h-8.823z" fill="#fff"/>
   </g>
   <g transform="matrix(.35278 0 0 -.35278 188.28 -34.992)">
    <path d="m0 0c0 3.21-2.07 5.3-4.771 5.3-2.859 0-4.683-2.421-4.683-5.3 0-3.385 2.14-5.35 4.736-5.35 2.736 0 4.718 2.192 4.718 5.35m-12.278 7.595h2.841v-2.1h0.228c1.077 1.601 2.896 2.54 4.824 2.491 4.21 0 7.367-3.368 7.367-7.981 0-4.648-2.982-8.033-7.156-8.033-2.002-0.114-3.906 0.875-4.964 2.578h-0.228v-8.91h-2.894z" fill="#fff"/>
   </g>
   <g transform="matrix(.35278 0 0 -.35278 181.96 -34.857)">
    <path d="m0 0c0 3.385-2.157 5.35-4.771 5.35-2.719 0-4.736-2.228-4.736-5.35 0-3.209 2.1-5.314 4.771-5.314 2.894 0 4.736 2.421 4.736 5.314m-12.418 0.035c0 4.6 2.947 8.016 7.157 8.016 1.981 0.045 3.848-0.928 4.946-2.578h0.228v2.192h2.894v-11.93c-0.025-0.365 0.251-0.681 0.616-0.705 0.046-3e-3 0.092-2e-3 0.138 5e-3h0.7v-2.631h-2.07c-1.133-0.094-2.128 0.749-2.222 1.882-6e-3 0.073-8e-3 0.145-6e-3 0.218h-0.211c-1.064-1.632-2.912-2.579-4.858-2.49-4.207 4e-3 -7.312 3.372-7.312 8.021" fill="#fff"/>
   </g>
   <g transform="matrix(.35278 0 0 -.35278 174.62 -32.952)">
    <path d="m0 0h2.982v16.869h-2.982v2.543h5.876v-19.417h2.947v-2.508h-8.822z" fill="#fff"/>
   </g>
   <g transform="matrix(.35278 0 0 -.35278 169.61 -34.111)">
    <path d="m0 0v9.787h2.894v-9.3c-0.081-1.905 1.397-3.516 3.302-3.597 0.069-3e-3 0.137-4e-3 0.206-3e-3 2.071-0.032 3.775 1.621 3.807 3.692 1e-3 0.056 0 0.111-1e-3 0.167v9.033h2.894v-15.26h-2.894v1.982h-0.23c-0.891-1.561-2.591-2.48-4.385-2.368-3.471 0.012-5.593 2.587-5.593 5.867" fill="#fff"/>
   </g>
   <g transform="matrix(.35278 0 0 -.35278 167.52 -34.857)">
    <path d="m0 0c0 3.385-2.158 5.35-4.771 5.35-2.719 0-4.736-2.228-4.736-5.35 0-3.209 2.105-5.314 4.771-5.314 2.895-2e-3 4.736 2.419 4.736 5.313zm-12.418 0.035c0 4.6 2.947 8.016 7.156 8.016 1.981 0.045 3.848-0.928 4.946-2.578h0.228v2.192h2.895v-11.93c-0.025-0.365 0.251-0.681 0.616-0.705 0.046-3e-3 0.092-2e-3 0.138 5e-3h0.7v-2.631h-2.07c-1.133-0.094-2.128 0.749-2.222 1.882-6e-3 0.073-8e-3 0.145-6e-3 0.218h-0.211c-1.064-1.632-2.912-2.579-4.858-2.49-4.207 4e-3 -7.312 3.372-7.312 8.021" fill="#fff"/>
   </g>
  </g>
 </g>
</svg>
